<svg width="1149" height="156" viewBox="0 0 1149 156" fill="none" xmlns="http://www.w3.org/2000/svg">
<path d="M78.0138 155.604H77.8018C34.9778 155.604 0.209844 120.836 0.209844 78.012C0.209844 57.448 8.26584 37.944 22.8938 23.316C37.5218 8.26399 56.8138 0.419993 77.8018 0.419993H78.0138C119.566 0.419993 153.274 32.644 155.606 73.984H82.0418V50.664C82.0418 48.332 80.3458 46.636 78.0138 46.636C75.6818 46.636 73.9858 48.332 73.9858 50.664V105.36C73.9858 107.692 75.6818 109.388 78.0138 109.388C80.7698 109.388 82.0418 108.116 82.0418 105.36V82.04H155.606C154.546 101.544 146.49 119.352 132.922 132.92C118.294 147.548 99.0018 155.604 78.0138 155.604ZM238.67 155.604H238.458C217.47 155.604 198.178 147.548 183.55 132.92C168.922 118.292 160.866 99 160.866 78.012C160.866 35.4 195.634 0.419993 238.458 0.419993H238.67C259.658 0.419993 278.95 8.26399 293.578 23.316C308.206 37.944 316.262 57.448 316.262 78.012C316.262 120.836 281.494 155.604 238.67 155.604ZM234.43 50.664V105.36C234.43 108.116 235.702 109.388 238.458 109.388C240.79 109.388 242.486 107.692 242.486 105.36V50.664C242.486 48.332 240.79 46.636 238.458 46.636C236.126 46.636 234.43 48.332 234.43 50.664ZM369.454 77.164L380.054 152H323.874V3.59999H406.342L417.154 80.132C417.366 82.04 419.274 83.736 420.97 83.736C421.182 83.736 421.606 83.524 421.818 83.524C424.15 82.888 425.21 81.404 425.21 79.708C425.21 79.496 425.21 79.284 425.21 79.072L414.61 3.59999H470.79V152H388.11L377.51 76.104C377.298 72.924 374.966 72.288 373.482 72.288C373.058 72.288 369.454 72.5 369.454 76.528C369.454 76.74 369.454 76.952 369.454 77.164ZM513.437 48.544H483.121L477.185 3.59999H610.957L605.021 48.544H574.705C574.069 48.544 573.645 48.756 573.645 49.392V152H514.497V49.392C514.497 48.756 514.073 48.544 513.437 48.544ZM668.765 116.596C666.433 116.596 664.737 118.292 664.737 120.624V152H602.621L622.337 3.59999H715.193L734.909 152H672.793V120.624C672.793 118.292 671.097 116.596 668.765 116.596ZM664.737 51.512V69.532C664.737 72.288 666.009 73.56 668.765 73.56C671.097 73.56 672.793 71.864 672.793 69.532V51.512C672.793 49.18 671.097 47.484 668.765 47.484C666.009 47.484 664.737 48.756 664.737 51.512ZM812.768 155.604H812.556C769.732 155.604 734.964 120.836 734.964 78.012C734.964 57.448 743.02 37.944 757.648 23.316C772.276 8.26399 791.568 0.419993 812.556 0.419993H812.768C854.32 0.419993 888.028 32.644 890.36 73.984H816.796V50.664C816.796 48.332 815.1 46.636 812.768 46.636C810.436 46.636 808.74 48.332 808.74 50.664V105.36C808.74 107.692 810.436 109.388 812.768 109.388C815.524 109.388 816.796 108.116 816.796 105.36V82.04H890.36C889.3 101.544 881.244 119.352 867.676 132.92C853.048 147.548 833.756 155.604 812.768 155.604ZM922.324 48.544H892.008L886.072 3.59999H1019.84L1013.91 48.544H983.592C982.956 48.544 982.532 48.756 982.532 49.392V152H923.384V49.392C923.384 48.756 922.96 48.544 922.324 48.544ZM1083.65 61.9L1113.11 65.928C1133.68 68.684 1148.73 86.704 1148.73 106.844C1148.73 131.86 1128.17 152 1103.57 152H1022.17V92.64L1086.61 101.756C1086.83 101.756 1087.04 101.756 1087.25 101.756C1091.07 101.756 1091.28 98.152 1091.28 97.728C1091.28 96.244 1090.43 94.124 1087.67 93.912L1057.78 89.672C1037.64 86.916 1022.17 68.896 1022.17 48.756C1022.17 23.74 1042.31 3.59999 1067.32 3.59999H1148.73V62.748L1084.71 53.844C1084.28 53.844 1084.07 53.632 1083.65 53.632C1080.68 53.632 1080.25 57.66 1080.25 57.872C1080.25 59.356 1081.1 61.264 1083.65 61.9Z" fill="#161616"/>
</svg>
