<svg width="25" height="24" viewBox="0 0 25 24" fill="none" xmlns="http://www.w3.org/2000/svg">
<rect x="0.573242" width="24" height="24" rx="4" fill="#161616"/>
<path d="M14.47 6.65545C13.4284 6.41343 12.3452 6.41343 11.3036 6.65545C10.7021 6.2865 10.2428 6.11694 9.90879 6.04536C9.76623 6.01319 9.62036 5.99803 9.47423 6.0002C9.40774 6.00201 9.34156 6.00999 9.27655 6.02406L9.26803 6.02577L9.26462 6.02747H9.26206L9.3788 6.43732L9.26206 6.02832C9.2022 6.04524 9.14677 6.07506 9.09966 6.11569C9.05256 6.15632 9.01492 6.20677 8.9894 6.2635C8.73801 6.82647 8.69012 7.45932 8.85392 8.05371C8.4297 8.56782 8.19852 9.21404 8.20037 9.88057C8.20037 11.2039 8.59062 12.0934 9.2561 12.6652C9.72219 13.0656 10.288 13.2787 10.8555 13.4005C10.7661 13.6628 10.7325 13.9408 10.7566 14.2168V14.7263C10.4098 14.7988 10.1695 14.7758 9.99826 14.7195C9.78439 14.6488 9.61994 14.5065 9.4623 14.302C9.3799 14.1918 9.30311 14.0775 9.23224 13.9595L9.18367 13.8802C9.12234 13.7783 9.05871 13.6777 8.99281 13.5786C8.83091 13.3392 8.59062 13.0392 8.20208 12.937L7.78967 12.8288L7.57324 13.6536L7.98565 13.7618C8.05381 13.7788 8.14243 13.8427 8.28814 14.0566C8.34422 14.141 8.3982 14.2268 8.45003 14.3139L8.50797 14.4077C8.58807 14.5372 8.68009 14.6803 8.7866 14.8201C9.00218 15.1013 9.29615 15.385 9.73241 15.529C10.0306 15.6278 10.3698 15.6517 10.7566 15.5921V17.1829C10.7566 17.2959 10.8015 17.4042 10.8814 17.4841C10.9613 17.564 11.0697 17.6089 11.1826 17.6089H14.591C14.704 17.6089 14.8123 17.564 14.8922 17.4841C14.9721 17.4042 15.017 17.2959 15.017 17.1829V14.1478C15.017 13.8785 15.0051 13.6323 14.9292 13.4031C15.4942 13.2838 16.0557 13.0708 16.5192 12.6703C17.1838 12.0943 17.5732 11.1962 17.5732 9.86524V9.86438C17.5711 9.20331 17.3398 8.56342 16.9188 8.05371C17.0824 7.45958 17.0345 6.82707 16.7834 6.26435C16.758 6.20755 16.7206 6.15699 16.6736 6.11622C16.6267 6.07544 16.5713 6.04544 16.5116 6.02832L16.3948 6.43732C16.5116 6.02832 16.5107 6.02832 16.5098 6.02832L16.5081 6.02747L16.5047 6.02577L16.4971 6.02406C16.476 6.01859 16.4547 6.01432 16.4332 6.01128C16.3886 6.00477 16.3436 6.00107 16.2985 6.0002C16.1524 5.99805 16.0065 6.01321 15.864 6.04536C15.5308 6.11694 15.0715 6.2865 14.47 6.65545Z" fill="#E4EFD9"/>
</svg>
