<svg width="1003" height="163" viewBox="0 0 1003 163" fill="none" xmlns="http://www.w3.org/2000/svg">
<mask id="path-1-outside-1_4003_24" maskUnits="userSpaceOnUse" x="0.385742" y="12" width="991" height="151" fill="black">
<rect fill="white" x="0.385742" y="12" width="991" height="151"/>
<path d="M63.2857 71.75L92.4757 75.74C112.846 78.47 127.756 96.32 127.756 116.27C127.756 141.05 107.386 161 83.0257 161H2.38574V102.2L66.2257 111.23C66.4357 111.23 66.6457 111.23 66.8557 111.23C70.6357 111.23 70.8457 107.66 70.8457 107.24C70.8457 105.77 70.0057 103.67 67.2757 103.46L37.6657 99.26C17.7157 96.53 2.38574 78.68 2.38574 58.73C2.38574 33.95 22.3357 14 47.1157 14H127.756V72.59L64.3357 63.77C63.9157 63.77 63.7057 63.56 63.2857 63.56C60.3457 63.56 59.9257 67.55 59.9257 67.76C59.9257 69.23 60.7657 71.12 63.2857 71.75Z"/>
<path d="M199.727 116.48H256.637L250.757 161H137.147V14H256.637L250.757 58.52H199.727C197.417 58.52 195.737 60.2 195.737 62.51C195.737 64.82 197.417 66.5 199.727 66.5H242.777L237.107 108.5H199.727C197.417 108.5 195.737 110.18 195.737 112.49C195.737 114.8 197.417 116.48 199.727 116.48Z"/>
<path d="M322.475 161H263.885V14H322.475V161Z"/>
<path d="M364.911 58.52H334.881L329.001 14H461.511L455.631 58.52H425.601C424.971 58.52 424.551 58.73 424.551 59.36V161H365.961V59.36C365.961 58.73 365.541 58.52 364.911 58.52Z"/>
<path d="M499.648 58.52H469.618L463.738 14H596.248L590.368 58.52H560.338C559.708 58.52 559.288 58.73 559.288 59.36V161H500.698V59.36C500.698 58.73 500.278 58.52 499.648 58.52Z"/>
<path d="M665.254 116.48H722.164L716.284 161H602.674V14H722.164L716.284 58.52H665.254C662.944 58.52 661.264 60.2 661.264 62.51C661.264 64.82 662.944 66.5 665.254 66.5H708.304L702.634 108.5H665.254C662.944 108.5 661.264 110.18 661.264 112.49C661.264 114.8 662.944 116.48 665.254 116.48Z"/>
<path d="M791.992 116.9C789.682 116.9 788.002 118.58 788.002 120.89V161H729.412V14H804.592C832.942 14 856.042 37.1 856.042 65.45C856.042 77 852.472 87.5 845.122 96.95C844.912 97.16 844.912 97.37 844.912 97.37C844.912 97.79 845.122 98 845.332 98.21C851.422 103.25 854.782 110.39 854.782 118.58V161H795.982V120.89C795.982 118.58 794.302 116.9 791.992 116.9ZM786.532 60.41V70.7C786.532 73.01 788.212 74.69 790.522 74.69C792.832 74.69 794.512 73.01 794.512 70.7V60.41C794.512 58.1 792.832 56.42 790.522 56.42C787.792 56.42 786.532 57.68 786.532 60.41Z"/>
<path d="M924.204 71.75L953.394 75.74C973.764 78.47 988.674 96.32 988.674 116.27C988.674 141.05 968.304 161 943.944 161H863.304V102.2L927.144 111.23C927.354 111.23 927.564 111.23 927.774 111.23C931.554 111.23 931.764 107.66 931.764 107.24C931.764 105.77 930.924 103.67 928.194 103.46L898.584 99.26C878.634 96.53 863.304 78.68 863.304 58.73C863.304 33.95 883.254 14 908.034 14H988.674V72.59L925.254 63.77C924.834 63.77 924.624 63.56 924.204 63.56C921.264 63.56 920.844 67.55 920.844 67.76C920.844 69.23 921.684 71.12 924.204 71.75Z"/>
</mask>
<path d="M63.2857 71.75L92.4757 75.74C112.846 78.47 127.756 96.32 127.756 116.27C127.756 141.05 107.386 161 83.0257 161H2.38574V102.2L66.2257 111.23C66.4357 111.23 66.6457 111.23 66.8557 111.23C70.6357 111.23 70.8457 107.66 70.8457 107.24C70.8457 105.77 70.0057 103.67 67.2757 103.46L37.6657 99.26C17.7157 96.53 2.38574 78.68 2.38574 58.73C2.38574 33.95 22.3357 14 47.1157 14H127.756V72.59L64.3357 63.77C63.9157 63.77 63.7057 63.56 63.2857 63.56C60.3457 63.56 59.9257 67.55 59.9257 67.76C59.9257 69.23 60.7657 71.12 63.2857 71.75Z" fill="#161616"/>
<path d="M199.727 116.48H256.637L250.757 161H137.147V14H256.637L250.757 58.52H199.727C197.417 58.52 195.737 60.2 195.737 62.51C195.737 64.82 197.417 66.5 199.727 66.5H242.777L237.107 108.5H199.727C197.417 108.5 195.737 110.18 195.737 112.49C195.737 114.8 197.417 116.48 199.727 116.48Z" fill="#161616"/>
<path d="M322.475 161H263.885V14H322.475V161Z" fill="#161616"/>
<path d="M364.911 58.52H334.881L329.001 14H461.511L455.631 58.52H425.601C424.971 58.52 424.551 58.73 424.551 59.36V161H365.961V59.36C365.961 58.73 365.541 58.52 364.911 58.52Z" fill="#161616"/>
<path d="M499.648 58.52H469.618L463.738 14H596.248L590.368 58.52H560.338C559.708 58.52 559.288 58.73 559.288 59.36V161H500.698V59.36C500.698 58.73 500.278 58.52 499.648 58.52Z" fill="#161616"/>
<path d="M665.254 116.48H722.164L716.284 161H602.674V14H722.164L716.284 58.52H665.254C662.944 58.52 661.264 60.2 661.264 62.51C661.264 64.82 662.944 66.5 665.254 66.5H708.304L702.634 108.5H665.254C662.944 108.5 661.264 110.18 661.264 112.49C661.264 114.8 662.944 116.48 665.254 116.48Z" fill="#161616"/>
<path d="M791.992 116.9C789.682 116.9 788.002 118.58 788.002 120.89V161H729.412V14H804.592C832.942 14 856.042 37.1 856.042 65.45C856.042 77 852.472 87.5 845.122 96.95C844.912 97.16 844.912 97.37 844.912 97.37C844.912 97.79 845.122 98 845.332 98.21C851.422 103.25 854.782 110.39 854.782 118.58V161H795.982V120.89C795.982 118.58 794.302 116.9 791.992 116.9ZM786.532 60.41V70.7C786.532 73.01 788.212 74.69 790.522 74.69C792.832 74.69 794.512 73.01 794.512 70.7V60.41C794.512 58.1 792.832 56.42 790.522 56.42C787.792 56.42 786.532 57.68 786.532 60.41Z" fill="#161616"/>
<path d="M924.204 71.75L953.394 75.74C973.764 78.47 988.674 96.32 988.674 116.27C988.674 141.05 968.304 161 943.944 161H863.304V102.2L927.144 111.23C927.354 111.23 927.564 111.23 927.774 111.23C931.554 111.23 931.764 107.66 931.764 107.24C931.764 105.77 930.924 103.67 928.194 103.46L898.584 99.26C878.634 96.53 863.304 78.68 863.304 58.73C863.304 33.95 883.254 14 908.034 14H988.674V72.59L925.254 63.77C924.834 63.77 924.624 63.56 924.204 63.56C921.264 63.56 920.844 67.55 920.844 67.76C920.844 69.23 921.684 71.12 924.204 71.75Z" fill="#161616"/>
<path d="M63.2857 71.75L92.4757 75.74C112.846 78.47 127.756 96.32 127.756 116.27C127.756 141.05 107.386 161 83.0257 161H2.38574V102.2L66.2257 111.23C66.4357 111.23 66.6457 111.23 66.8557 111.23C70.6357 111.23 70.8457 107.66 70.8457 107.24C70.8457 105.77 70.0057 103.67 67.2757 103.46L37.6657 99.26C17.7157 96.53 2.38574 78.68 2.38574 58.73C2.38574 33.95 22.3357 14 47.1157 14H127.756V72.59L64.3357 63.77C63.9157 63.77 63.7057 63.56 63.2857 63.56C60.3457 63.56 59.9257 67.55 59.9257 67.76C59.9257 69.23 60.7657 71.12 63.2857 71.75Z" stroke="#161616" stroke-width="4" mask="url(#path-1-outside-1_4003_24)"/>
<path d="M199.727 116.48H256.637L250.757 161H137.147V14H256.637L250.757 58.52H199.727C197.417 58.52 195.737 60.2 195.737 62.51C195.737 64.82 197.417 66.5 199.727 66.5H242.777L237.107 108.5H199.727C197.417 108.5 195.737 110.18 195.737 112.49C195.737 114.8 197.417 116.48 199.727 116.48Z" stroke="#161616" stroke-width="4" mask="url(#path-1-outside-1_4003_24)"/>
<path d="M322.475 161H263.885V14H322.475V161Z" stroke="#161616" stroke-width="4" mask="url(#path-1-outside-1_4003_24)"/>
<path d="M364.911 58.52H334.881L329.001 14H461.511L455.631 58.52H425.601C424.971 58.52 424.551 58.73 424.551 59.36V161H365.961V59.36C365.961 58.73 365.541 58.52 364.911 58.52Z" stroke="#161616" stroke-width="4" mask="url(#path-1-outside-1_4003_24)"/>
<path d="M499.648 58.52H469.618L463.738 14H596.248L590.368 58.52H560.338C559.708 58.52 559.288 58.73 559.288 59.36V161H500.698V59.36C500.698 58.73 500.278 58.52 499.648 58.52Z" stroke="#161616" stroke-width="4" mask="url(#path-1-outside-1_4003_24)"/>
<path d="M665.254 116.48H722.164L716.284 161H602.674V14H722.164L716.284 58.52H665.254C662.944 58.52 661.264 60.2 661.264 62.51C661.264 64.82 662.944 66.5 665.254 66.5H708.304L702.634 108.5H665.254C662.944 108.5 661.264 110.18 661.264 112.49C661.264 114.8 662.944 116.48 665.254 116.48Z" stroke="#161616" stroke-width="4" mask="url(#path-1-outside-1_4003_24)"/>
<path d="M791.992 116.9C789.682 116.9 788.002 118.58 788.002 120.89V161H729.412V14H804.592C832.942 14 856.042 37.1 856.042 65.45C856.042 77 852.472 87.5 845.122 96.95C844.912 97.16 844.912 97.37 844.912 97.37C844.912 97.79 845.122 98 845.332 98.21C851.422 103.25 854.782 110.39 854.782 118.58V161H795.982V120.89C795.982 118.58 794.302 116.9 791.992 116.9ZM786.532 60.41V70.7C786.532 73.01 788.212 74.69 790.522 74.69C792.832 74.69 794.512 73.01 794.512 70.7V60.41C794.512 58.1 792.832 56.42 790.522 56.42C787.792 56.42 786.532 57.68 786.532 60.41Z" stroke="#161616" stroke-width="4" mask="url(#path-1-outside-1_4003_24)"/>
<path d="M924.204 71.75L953.394 75.74C973.764 78.47 988.674 96.32 988.674 116.27C988.674 141.05 968.304 161 943.944 161H863.304V102.2L927.144 111.23C927.354 111.23 927.564 111.23 927.774 111.23C931.554 111.23 931.764 107.66 931.764 107.24C931.764 105.77 930.924 103.67 928.194 103.46L898.584 99.26C878.634 96.53 863.304 78.68 863.304 58.73C863.304 33.95 883.254 14 908.034 14H988.674V72.59L925.254 63.77C924.834 63.77 924.624 63.56 924.204 63.56C921.264 63.56 920.844 67.55 920.844 67.76C920.844 69.23 921.684 71.12 924.204 71.75Z" stroke="#161616" stroke-width="4" mask="url(#path-1-outside-1_4003_24)"/>
<mask id="path-2-outside-2_4003_24" maskUnits="userSpaceOnUse" x="8.38574" y="-1.52588e-05" width="995" height="155" fill="black">
<rect fill="white" x="8.38574" y="-1.52588e-05" width="995" height="155"/>
<path d="M73.2857 61.75L102.476 65.74C122.846 68.47 137.756 86.32 137.756 106.27C137.756 131.05 117.386 151 93.0257 151H12.3857V92.2L76.2257 101.23C76.4357 101.23 76.6457 101.23 76.8557 101.23C80.6357 101.23 80.8457 97.66 80.8457 97.24C80.8457 95.77 80.0057 93.67 77.2757 93.46L47.6657 89.26C27.7157 86.53 12.3857 68.68 12.3857 48.73C12.3857 23.95 32.3357 3.99998 57.1157 3.99998H137.756V62.59L74.3357 53.77C73.9157 53.77 73.7057 53.56 73.2857 53.56C70.3457 53.56 69.9257 57.55 69.9257 57.76C69.9257 59.23 70.7657 61.12 73.2857 61.75Z"/>
<path d="M209.727 106.48H266.637L260.757 151H147.147V3.99998H266.637L260.757 48.52H209.727C207.417 48.52 205.737 50.2 205.737 52.51C205.737 54.82 207.417 56.5 209.727 56.5H252.777L247.107 98.5H209.727C207.417 98.5 205.737 100.18 205.737 102.49C205.737 104.8 207.417 106.48 209.727 106.48Z"/>
<path d="M332.475 151H273.885V3.99998H332.475V151Z"/>
<path d="M374.911 48.52H344.881L339.001 3.99998H471.511L465.631 48.52H435.601C434.971 48.52 434.551 48.73 434.551 49.36V151H375.961V49.36C375.961 48.73 375.541 48.52 374.911 48.52Z"/>
<path d="M509.648 48.52H479.618L473.738 3.99998H606.248L600.368 48.52H570.338C569.708 48.52 569.288 48.73 569.288 49.36V151H510.698V49.36C510.698 48.73 510.278 48.52 509.648 48.52Z"/>
<path d="M675.254 106.48H732.164L726.284 151H612.674V3.99998H732.164L726.284 48.52H675.254C672.944 48.52 671.264 50.2 671.264 52.51C671.264 54.82 672.944 56.5 675.254 56.5H718.304L712.634 98.5H675.254C672.944 98.5 671.264 100.18 671.264 102.49C671.264 104.8 672.944 106.48 675.254 106.48Z"/>
<path d="M801.992 106.9C799.682 106.9 798.002 108.58 798.002 110.89V151H739.412V3.99998H814.592C842.942 3.99998 866.042 27.1 866.042 55.45C866.042 67 862.472 77.5 855.122 86.95C854.912 87.16 854.912 87.37 854.912 87.37C854.912 87.79 855.122 88 855.332 88.21C861.422 93.25 864.782 100.39 864.782 108.58V151H805.982V110.89C805.982 108.58 804.302 106.9 801.992 106.9ZM796.532 50.41V60.7C796.532 63.01 798.212 64.69 800.522 64.69C802.832 64.69 804.512 63.01 804.512 60.7V50.41C804.512 48.1 802.832 46.42 800.522 46.42C797.792 46.42 796.532 47.68 796.532 50.41Z"/>
<path d="M934.204 61.75L963.394 65.74C983.764 68.47 998.674 86.32 998.674 106.27C998.674 131.05 978.304 151 953.944 151H873.304V92.2L937.144 101.23C937.354 101.23 937.564 101.23 937.774 101.23C941.554 101.23 941.764 97.66 941.764 97.24C941.764 95.77 940.924 93.67 938.194 93.46L908.584 89.26C888.634 86.53 873.304 68.68 873.304 48.73C873.304 23.95 893.254 3.99998 918.034 3.99998H998.674V62.59L935.254 53.77C934.834 53.77 934.624 53.56 934.204 53.56C931.264 53.56 930.844 57.55 930.844 57.76C930.844 59.23 931.684 61.12 934.204 61.75Z"/>
</mask>
<path d="M73.2857 61.75L102.476 65.74C122.846 68.47 137.756 86.32 137.756 106.27C137.756 131.05 117.386 151 93.0257 151H12.3857V92.2L76.2257 101.23C76.4357 101.23 76.6457 101.23 76.8557 101.23C80.6357 101.23 80.8457 97.66 80.8457 97.24C80.8457 95.77 80.0057 93.67 77.2757 93.46L47.6657 89.26C27.7157 86.53 12.3857 68.68 12.3857 48.73C12.3857 23.95 32.3357 3.99998 57.1157 3.99998H137.756V62.59L74.3357 53.77C73.9157 53.77 73.7057 53.56 73.2857 53.56C70.3457 53.56 69.9257 57.55 69.9257 57.76C69.9257 59.23 70.7657 61.12 73.2857 61.75Z" fill="#EC6E38"/>
<path d="M209.727 106.48H266.637L260.757 151H147.147V3.99998H266.637L260.757 48.52H209.727C207.417 48.52 205.737 50.2 205.737 52.51C205.737 54.82 207.417 56.5 209.727 56.5H252.777L247.107 98.5H209.727C207.417 98.5 205.737 100.18 205.737 102.49C205.737 104.8 207.417 106.48 209.727 106.48Z" fill="#EC6E38"/>
<path d="M332.475 151H273.885V3.99998H332.475V151Z" fill="#EC6E38"/>
<path d="M374.911 48.52H344.881L339.001 3.99998H471.511L465.631 48.52H435.601C434.971 48.52 434.551 48.73 434.551 49.36V151H375.961V49.36C375.961 48.73 375.541 48.52 374.911 48.52Z" fill="#EC6E38"/>
<path d="M509.648 48.52H479.618L473.738 3.99998H606.248L600.368 48.52H570.338C569.708 48.52 569.288 48.73 569.288 49.36V151H510.698V49.36C510.698 48.73 510.278 48.52 509.648 48.52Z" fill="#EC6E38"/>
<path d="M675.254 106.48H732.164L726.284 151H612.674V3.99998H732.164L726.284 48.52H675.254C672.944 48.52 671.264 50.2 671.264 52.51C671.264 54.82 672.944 56.5 675.254 56.5H718.304L712.634 98.5H675.254C672.944 98.5 671.264 100.18 671.264 102.49C671.264 104.8 672.944 106.48 675.254 106.48Z" fill="#EC6E38"/>
<path d="M801.992 106.9C799.682 106.9 798.002 108.58 798.002 110.89V151H739.412V3.99998H814.592C842.942 3.99998 866.042 27.1 866.042 55.45C866.042 67 862.472 77.5 855.122 86.95C854.912 87.16 854.912 87.37 854.912 87.37C854.912 87.79 855.122 88 855.332 88.21C861.422 93.25 864.782 100.39 864.782 108.58V151H805.982V110.89C805.982 108.58 804.302 106.9 801.992 106.9ZM796.532 50.41V60.7C796.532 63.01 798.212 64.69 800.522 64.69C802.832 64.69 804.512 63.01 804.512 60.7V50.41C804.512 48.1 802.832 46.42 800.522 46.42C797.792 46.42 796.532 47.68 796.532 50.41Z" fill="#EC6E38"/>
<path d="M934.204 61.75L963.394 65.74C983.764 68.47 998.674 86.32 998.674 106.27C998.674 131.05 978.304 151 953.944 151H873.304V92.2L937.144 101.23C937.354 101.23 937.564 101.23 937.774 101.23C941.554 101.23 941.764 97.66 941.764 97.24C941.764 95.77 940.924 93.67 938.194 93.46L908.584 89.26C888.634 86.53 873.304 68.68 873.304 48.73C873.304 23.95 893.254 3.99998 918.034 3.99998H998.674V62.59L935.254 53.77C934.834 53.77 934.624 53.56 934.204 53.56C931.264 53.56 930.844 57.55 930.844 57.76C930.844 59.23 931.684 61.12 934.204 61.75Z" fill="#EC6E38"/>
<path d="M73.2857 61.75L102.476 65.74C122.846 68.47 137.756 86.32 137.756 106.27C137.756 131.05 117.386 151 93.0257 151H12.3857V92.2L76.2257 101.23C76.4357 101.23 76.6457 101.23 76.8557 101.23C80.6357 101.23 80.8457 97.66 80.8457 97.24C80.8457 95.77 80.0057 93.67 77.2757 93.46L47.6657 89.26C27.7157 86.53 12.3857 68.68 12.3857 48.73C12.3857 23.95 32.3357 3.99998 57.1157 3.99998H137.756V62.59L74.3357 53.77C73.9157 53.77 73.7057 53.56 73.2857 53.56C70.3457 53.56 69.9257 57.55 69.9257 57.76C69.9257 59.23 70.7657 61.12 73.2857 61.75Z" stroke="#161616" stroke-width="8" mask="url(#path-2-outside-2_4003_24)"/>
<path d="M209.727 106.48H266.637L260.757 151H147.147V3.99998H266.637L260.757 48.52H209.727C207.417 48.52 205.737 50.2 205.737 52.51C205.737 54.82 207.417 56.5 209.727 56.5H252.777L247.107 98.5H209.727C207.417 98.5 205.737 100.18 205.737 102.49C205.737 104.8 207.417 106.48 209.727 106.48Z" stroke="#161616" stroke-width="8" mask="url(#path-2-outside-2_4003_24)"/>
<path d="M332.475 151H273.885V3.99998H332.475V151Z" stroke="#161616" stroke-width="8" mask="url(#path-2-outside-2_4003_24)"/>
<path d="M374.911 48.52H344.881L339.001 3.99998H471.511L465.631 48.52H435.601C434.971 48.52 434.551 48.73 434.551 49.36V151H375.961V49.36C375.961 48.73 375.541 48.52 374.911 48.52Z" stroke="#161616" stroke-width="8" mask="url(#path-2-outside-2_4003_24)"/>
<path d="M509.648 48.52H479.618L473.738 3.99998H606.248L600.368 48.52H570.338C569.708 48.52 569.288 48.73 569.288 49.36V151H510.698V49.36C510.698 48.73 510.278 48.52 509.648 48.52Z" stroke="#161616" stroke-width="8" mask="url(#path-2-outside-2_4003_24)"/>
<path d="M675.254 106.48H732.164L726.284 151H612.674V3.99998H732.164L726.284 48.52H675.254C672.944 48.52 671.264 50.2 671.264 52.51C671.264 54.82 672.944 56.5 675.254 56.5H718.304L712.634 98.5H675.254C672.944 98.5 671.264 100.18 671.264 102.49C671.264 104.8 672.944 106.48 675.254 106.48Z" stroke="#161616" stroke-width="8" mask="url(#path-2-outside-2_4003_24)"/>
<path d="M801.992 106.9C799.682 106.9 798.002 108.58 798.002 110.89V151H739.412V3.99998H814.592C842.942 3.99998 866.042 27.1 866.042 55.45C866.042 67 862.472 77.5 855.122 86.95C854.912 87.16 854.912 87.37 854.912 87.37C854.912 87.79 855.122 88 855.332 88.21C861.422 93.25 864.782 100.39 864.782 108.58V151H805.982V110.89C805.982 108.58 804.302 106.9 801.992 106.9ZM796.532 50.41V60.7C796.532 63.01 798.212 64.69 800.522 64.69C802.832 64.69 804.512 63.01 804.512 60.7V50.41C804.512 48.1 802.832 46.42 800.522 46.42C797.792 46.42 796.532 47.68 796.532 50.41Z" stroke="#161616" stroke-width="8" mask="url(#path-2-outside-2_4003_24)"/>
<path d="M934.204 61.75L963.394 65.74C983.764 68.47 998.674 86.32 998.674 106.27C998.674 131.05 978.304 151 953.944 151H873.304V92.2L937.144 101.23C937.354 101.23 937.564 101.23 937.774 101.23C941.554 101.23 941.764 97.66 941.764 97.24C941.764 95.77 940.924 93.67 938.194 93.46L908.584 89.26C888.634 86.53 873.304 68.68 873.304 48.73C873.304 23.95 893.254 3.99998 918.034 3.99998H998.674V62.59L935.254 53.77C934.834 53.77 934.624 53.56 934.204 53.56C931.264 53.56 930.844 57.55 930.844 57.76C930.844 59.23 931.684 61.12 934.204 61.75Z" stroke="#161616" stroke-width="8" mask="url(#path-2-outside-2_4003_24)"/>
</svg>
