<svg width="24" height="24" viewBox="0 0 24 24" fill="none" xmlns="http://www.w3.org/2000/svg">
<rect width="24" height="24" rx="4" fill="#161616"/>
<path fill-rule="evenodd" clip-rule="evenodd" d="M16.4582 7.06841C16.6016 7.00784 16.7586 6.98694 16.9129 7.00791C17.0671 7.02888 17.2129 7.09093 17.3351 7.18762C17.4573 7.28431 17.5515 7.4121 17.6077 7.55769C17.664 7.70327 17.6804 7.86133 17.6551 8.01542L16.3386 16.0277C16.2109 16.8005 15.3658 17.2437 14.6593 16.8588C14.0684 16.5367 13.1908 16.0405 12.4013 15.5227C12.0066 15.2635 10.7975 14.4336 10.9461 13.843C11.0738 13.3381 13.1054 11.4406 14.2664 10.3124C14.722 9.86923 14.5142 9.61355 13.9761 10.0212C12.6399 11.0335 10.4945 12.5728 9.78516 13.0061C9.15941 13.3882 8.83319 13.4534 8.44312 13.3882C7.73147 13.2694 7.07148 13.0853 6.5328 12.8611C5.8049 12.5582 5.84031 11.5542 6.53222 11.2618L16.4582 7.06841Z" fill="#E4EFD9"/>
</svg>
