<svg width="580" height="162" viewBox="0 0 580 162" fill="none" xmlns="http://www.w3.org/2000/svg">
<path d="M30.4609 72H9.76094L0.460938 2H27.2609V46C27.2609 47.3 27.8609 47.9 29.1609 47.9C30.2609 47.9 31.0609 47.1 31.0609 46V2H50.3609V46C50.3609 47.3 50.9609 47.9 52.2609 47.9C53.3609 47.9 54.1609 47.1 54.1609 46V2H80.9609L71.5609 72H50.8609C46.3609 72 42.5609 68.4 42.5609 63.7C42.5609 62.4 41.9609 61.8 40.6609 61.8C39.5609 61.8 38.7609 62.6 38.7609 63.7C38.7609 65.9 37.9609 67.9 36.3609 69.6C34.6609 71.2 32.6609 72 30.4609 72Z" fill="#161616"/>
<path d="M117.165 73.7H117.065C107.165 73.7 98.0648 69.9 91.1648 63C84.2648 56.1 80.4648 47 80.4648 37.1C80.4648 17 96.8648 0.5 117.065 0.5H117.165C127.065 0.5 136.165 4.2 143.065 11.3C149.965 18.2 153.765 27.4 153.765 37.1C153.765 57.3 137.365 73.7 117.165 73.7ZM115.165 24.2V50C115.165 51.3 115.765 51.9 117.065 51.9C118.165 51.9 118.965 51.1 118.965 50V24.2C118.965 23.1 118.165 22.3 117.065 22.3C115.965 22.3 115.165 23.1 115.165 24.2Z" fill="#161616"/>
<path d="M193.044 73.7H192.944C183.044 73.7 173.944 69.9 167.044 63C160.144 56.1 156.344 47 156.344 37.1C156.344 17 172.744 0.5 192.944 0.5H193.044C202.944 0.5 212.044 4.2 218.944 11.3C225.844 18.2 229.644 27.4 229.644 37.1C229.644 57.3 213.244 73.7 193.044 73.7ZM191.044 24.2V50C191.044 51.3 191.644 51.9 192.944 51.9C194.044 51.9 194.844 51.1 194.844 50V24.2C194.844 23.1 194.044 22.3 192.944 22.3C191.844 22.3 191.044 23.1 191.044 24.2Z" fill="#161616"/>
<path d="M280.834 47H261.634C261.334 47 261.134 47.2 261.134 47.5V72H233.234V2H290.134L287.334 23.2H263.034C261.934 23.2 261.134 24 261.134 25.1C261.134 26.2 261.934 27 263.034 27H283.534L280.834 47Z" fill="#161616"/>
<path d="M332.207 45.6C324.607 42 319.607 34.9 318.507 26.8L315.207 2H344.507V25.1C344.507 26.2 345.307 27 346.407 27C347.507 27 348.307 26.2 348.307 25.1V2H377.607L374.307 26.8C373.207 34.9 368.207 42 360.607 45.6C360.507 45.6 360.407 45.7 360.407 46V72H332.407V46C332.407 45.7 332.307 45.6 332.207 45.6Z" fill="#161616"/>
<path d="M414.333 73.7H414.233C404.333 73.7 395.233 69.9 388.333 63C381.433 56.1 377.633 47 377.633 37.1C377.633 17 394.033 0.5 414.233 0.5H414.333C424.233 0.5 433.333 4.2 440.233 11.3C447.133 18.2 450.933 27.4 450.933 37.1C450.933 57.3 434.533 73.7 414.333 73.7ZM412.333 24.2V50C412.333 51.3 412.933 51.9 414.233 51.9C415.333 51.9 416.133 51.1 416.133 50V24.2C416.133 23.1 415.333 22.3 414.233 22.3C413.133 22.3 412.333 23.1 412.333 24.2Z" fill="#161616"/>
<path d="M514.023 2V43.9C514.023 60.3 500.623 73.7 484.123 73.7C467.723 73.7 454.323 60.3 454.323 43.9V2H482.223V51.8C482.223 52.9 483.023 53.7 484.123 53.7C485.423 53.7 486.023 53.1 486.023 51.8V2H514.023Z" fill="#161616"/>
<path d="M548.581 51C547.481 51 546.681 51.8 546.681 52.9V72H518.781V2H554.581C568.081 2 579.081 13 579.081 26.5C579.081 32 577.381 37 573.881 41.5C573.781 41.6 573.781 41.7 573.781 41.7C573.781 41.9 573.881 42 573.981 42.1C576.881 44.5 578.481 47.9 578.481 51.8V72H550.481V52.9C550.481 51.8 549.681 51 548.581 51ZM545.981 24.1V29C545.981 30.1 546.781 30.9 547.881 30.9C548.981 30.9 549.781 30.1 549.781 29V24.1C549.781 23 548.981 22.2 547.881 22.2C546.581 22.2 545.981 22.8 545.981 24.1Z" fill="#161616"/>
<path d="M108.937 162H81.0371V92H108.937V162Z" fill="#161616"/>
<path d="M135.545 126.7L140.545 162H114.045V92H152.945L158.045 128.1C158.145 129 159.045 129.8 159.845 129.8C159.945 129.8 160.145 129.7 160.245 129.7C161.345 129.4 161.845 128.7 161.845 127.9C161.845 127.8 161.845 127.7 161.845 127.6L156.845 92H183.345V162H144.345L139.345 126.2C139.245 124.7 138.145 124.4 137.445 124.4C137.245 124.4 135.545 124.5 135.545 126.4C135.545 126.5 135.545 126.6 135.545 126.7Z" fill="#161616"/>
<path d="M203.461 113.2H189.161L186.361 92H249.461L246.661 113.2H232.361C232.061 113.2 231.861 113.3 231.861 113.6V162H203.961V113.6C203.961 113.3 203.761 113.2 203.461 113.2Z" fill="#161616"/>
<path d="M282.321 140.8H309.421L306.621 162H252.521V92H309.421L306.621 113.2H282.321C281.221 113.2 280.421 114 280.421 115.1C280.421 116.2 281.221 117 282.321 117H302.821L300.121 137H282.321C281.221 137 280.421 137.8 280.421 138.9C280.421 140 281.221 140.8 282.321 140.8Z" fill="#161616"/>
<path d="M342.673 141C341.573 141 340.773 141.8 340.773 142.9V162H312.873V92H348.673C362.173 92 373.173 103 373.173 116.5C373.173 122 371.473 127 367.973 131.5C367.873 131.6 367.873 131.7 367.873 131.7C367.873 131.9 367.973 132 368.073 132.1C370.973 134.5 372.573 137.9 372.573 141.8V162H344.573V142.9C344.573 141.8 343.773 141 342.673 141ZM340.073 114.1V119C340.073 120.1 340.873 120.9 341.973 120.9C343.073 120.9 343.873 120.1 343.873 119V114.1C343.873 113 343.073 112.2 341.973 112.2C340.673 112.2 340.073 112.8 340.073 114.1Z" fill="#161616"/>
<path d="M405.631 119.5L419.531 121.4C429.231 122.7 436.331 131.2 436.331 140.7C436.331 152.5 426.631 162 415.031 162H376.631V134L407.031 138.3C407.131 138.3 407.231 138.3 407.331 138.3C409.131 138.3 409.231 136.6 409.231 136.4C409.231 135.7 408.831 134.7 407.531 134.6L393.431 132.6C383.931 131.3 376.631 122.8 376.631 113.3C376.631 101.5 386.131 92 397.931 92H436.331V119.9L406.131 115.7C405.931 115.7 405.831 115.6 405.631 115.6C404.231 115.6 404.031 117.5 404.031 117.6C404.031 118.3 404.431 119.2 405.631 119.5Z" fill="#161616"/>
<path d="M455.903 113.2H441.603L438.803 92H501.903L499.103 113.2H484.803C484.503 113.2 484.303 113.3 484.303 113.6V162H456.403V113.6C456.403 113.3 456.203 113.2 455.903 113.2Z" fill="#161616"/>
</svg>
